<?xml version="1.0" encoding="UTF-8" standalone="no"?>
<!-- Created with Inkscape (http://www.inkscape.org/) -->

<svg
   xmlns:dc="http://purl.org/dc/elements/1.1/"
   xmlns:cc="http://creativecommons.org/ns#"
   xmlns:rdf="http://www.w3.org/1999/02/22-rdf-syntax-ns#"
   xmlns:svg="http://www.w3.org/2000/svg"
   xmlns="http://www.w3.org/2000/svg"
   xmlns:sodipodi="http://sodipodi.sourceforge.net/DTD/sodipodi-0.dtd"
   xmlns:inkscape="http://www.inkscape.org/namespaces/inkscape"
   width="290"
   height="205"
   viewBox="0 0 76.729165 54.239585"
   version="1.1"
   id="svg101"
   inkscape:version="0.92.5 (2060ec1f9f, 2020-04-08)"
   sodipodi:docname="logo.svg">
  <defs
     id="defs95">
    <linearGradient
       id="a"
       gradientUnits="userSpaceOnUse"
       x1="-825.508"
       y1="1338.301"
       x2="-825.508"
       y2="1419.1021"
       gradientTransform="matrix(1,0,0,-1,1045.93,1658.759)">
      <stop
         offset=".387"
         stop-color="#d1d3d4"
         stop-opacity="0"
         id="stop12" />
      <stop
         offset="1"
         stop-color="#d1d3d4"
         id="stop14" />
    </linearGradient>
    <linearGradient
       id="b"
       gradientUnits="userSpaceOnUse"
       x1="-724.552"
       y1="1378.6021"
       x2="-724.552"
       y2="1462.5909"
       gradientTransform="matrix(1,0,0,-1,1045.93,1658.759)">
      <stop
         offset=".387"
         stop-color="#d1d3d4"
         stop-opacity="0"
         id="stop19" />
      <stop
         offset="1"
         stop-color="#d1d3d4"
         id="stop21" />
    </linearGradient>
    <linearGradient
       id="c"
       gradientUnits="userSpaceOnUse"
       x1="-874.10303"
       y1="1302.2629"
       x2="-680.039"
       y2="1302.2629"
       gradientTransform="matrix(1,0,0,-1,1045.93,1658.759)">
      <stop
         offset="0"
         stop-color="#e8e7e5"
         id="stop26" />
      <stop
         offset="1"
         stop-color="#fff"
         id="stop28" />
    </linearGradient>
    <linearGradient
       id="d"
       gradientUnits="userSpaceOnUse"
       x1="-883.03198"
       y1="1442.031"
       x2="-672.341"
       y2="1442.031"
       gradientTransform="matrix(1,0,0,-1,1045.93,1658.759)">
      <stop
         offset="0"
         stop-color="#e8e7e5"
         id="stop35" />
      <stop
         offset="1"
         stop-color="#fff"
         id="stop37" />
    </linearGradient>
  </defs>
  <sodipodi:namedview
     id="base"
     pagecolor="#ffffff"
     bordercolor="#666666"
     borderopacity="1.0"
     inkscape:pageopacity="0.0"
     inkscape:pageshadow="2"
     inkscape:zoom="1.9510638"
     inkscape:cx="138.57143"
     inkscape:cy="88.571429"
     inkscape:document-units="mm"
     inkscape:current-layer="layer1"
     showgrid="false"
     units="px"
     inkscape:window-width="1366"
     inkscape:window-height="697"
     inkscape:window-x="0"
     inkscape:window-y="0"
     inkscape:window-maximized="1" />
  <metadata
     id="metadata98">
    <rdf:RDF>
      <cc:Work
         rdf:about="">
        <dc:format>image/svg+xml</dc:format>
        <dc:type
           rdf:resource="http://purl.org/dc/dcmitype/StillImage" />
        <dc:title></dc:title>
      </cc:Work>
    </rdf:RDF>
  </metadata>
  <g
     inkscape:label="Camada 1"
     inkscape:groupmode="layer"
     id="layer1"
     transform="translate(0,-242.7604)">
    <g
       transform="matrix(0.11266608,0,0,0.11266608,27.5013,239.54017)"
       id="g62">
      <path
         style="fill:#2062af"
         inkscape:connector-curvature="0"
         id="path4"
         d="M 405.5,467.454 269.29,504.13 133.078,467.454 101.646,126.929 h 335.29 z" />
      <path
         style="fill:#3c9cd7"
         inkscape:connector-curvature="0"
         id="path6"
         d="m 269.289,154.511 v 320.367 l 0.308,0.084 110.229,-29.682 25.443,-290.769 z" />
      <path
         inkscape:connector-curvature="0"
         id="path8"
         d="M 191.985,76.899 V 56.631 h 29.571 V 34.453 h -51.749 v 62.684 h 51.749 V 76.899 Z m 82.766,-20.268 h 20.674 V 34.453 h -51.754 v 22.178 c 6.924,6.924 10.535,10.238 20.549,20.252 -5.854,0 -20.549,0.021 -20.549,0.02 v 20.234 h 51.754 V 76.899 Z m 73.352,0 h 20.673 V 34.453 H 317.02 v 22.178 c 6.924,6.924 10.537,10.238 20.551,20.252 -5.852,0 -20.551,0.021 -20.551,0.02 v 20.234 h 51.757 V 76.899 Z" />
      <path
         style="fill:#ffffff"
         inkscape:connector-curvature="0"
         id="path10"
         d="m 269.168,239.656 -97.49,40.602 3.233,40.199 94.257,-40.301 100.265,-42.868 4.157,-41.122 z" />
      <path
         style="fill:url(#a)"
         inkscape:connector-curvature="0"
         id="path17"
         d="m 171.677,280.258 3.233,40.199 94.257,-40.301 v -40.5 z" />
      <path
         style="fill:url(#b)"
         inkscape:connector-curvature="0"
         id="path24"
         d="m 373.59,196.167 -104.422,43.489 v 40.5 l 100.265,-42.868 z" />
      <path
         style="fill:url(#c)"
         inkscape:connector-curvature="0"
         id="path31"
         d="m 171.827,280.258 3.234,40.199 144.625,0.461 -3.235,53.598 -47.59,13.398 -45.748,-11.551 -2.772,-33.268 h -42.508 l 5.545,64.225 85.945,25.412 85.479,-24.951 11.09,-127.523 z" />
      <path
         style="opacity:0.05"
         inkscape:connector-curvature="0"
         id="path33"
         d="m 269.168,280.258 h -97.49 l 3.233,40.199 94.257,0.301 z m 0,107.528 -0.462,0.129 -45.742,-11.551 -2.772,-33.268 h -42.507 l 5.544,64.225 85.939,25.412 z" />
      <path
         style="fill:url(#d)"
         inkscape:connector-curvature="0"
         id="path40"
         d="M 162.898,196.167 H 373.59 l -4.157,41.122 H 167.98 Z" />
      <path
         style="opacity:0.05"
         inkscape:connector-curvature="0"
         id="path42"
         d="m 269.168,196.167 h -106.27 l 5.082,41.122 h 101.188 z" />
    </g>
    <g
       transform="matrix(0.14695482,0,0,0.14695482,-0.06539489,243.42186)"
       id="g25">
      <path
         style="fill:#e44d26"
         inkscape:connector-curvature="0"
         id="path2"
         d="M 255.555,70.766 232.314,331.126 127.844,360.088 23.662,331.166 0.445,70.766 Z" />
      <path
         style="fill:#f16529"
         inkscape:connector-curvature="0"
         id="path4-3"
         d="m 128,337.95 84.417,-23.403 19.86,-222.49 H 128 Z" />
      <path
         style="fill:#ebebeb"
         inkscape:connector-curvature="0"
         id="path6-6"
         d="M 82.82,155.932 H 128 V 123.995 H 47.917 l 0.764,8.568 7.85,88.01 H 128 V 188.636 H 85.739 Z m 7.198,80.61 h -32.06 l 4.474,50.146 65.421,18.16 0.147,-0.04 V 271.58 l -0.14,0.037 -35.568,-9.604 z" />
      <path
         inkscape:connector-curvature="0"
         id="path8-7"
         d="M 24.18,0 H 40.41 V 16.035 H 55.257 V 0 H 71.488 V 48.558 H 55.258 V 32.298 H 40.411 v 16.26 H 24.181 V 0 Z M 92.83,16.103 H 78.544 V 0 h 44.814 V 16.103 H 109.063 V 48.558 H 92.833 V 16.103 H 92.832 Z M 130.47,0 h 16.923 L 157.803,17.062 168.203,0 h 16.93 V 48.558 H 168.969 V 24.49 l -11.166,17.265 h -0.28 L 146.35,24.49 v 24.068 h -15.88 z m 62.74,0 h 16.235 v 32.508 h 22.824 v 16.05 h -39.06 V 0 Z" />
      <path
         style="fill:#ffffff"
         inkscape:connector-curvature="0"
         id="path10-5"
         d="m 127.89,220.573 h 39.327 l -3.708,41.42 -35.62,9.614 v 33.226 l 65.473,-18.145 0.48,-5.396 7.506,-84.08 0.779,-8.576 H 127.89 Z m 0,-64.719 v 0.078 h 77.143 l 0.64,-7.178 1.456,-16.191 0.763,-8.568 H 127.89 v 31.86 z" />
    </g>
  </g>
</svg>
