<?xml version="1.0" encoding="UTF-8" standalone="no"?>
<svg
   xmlns:dc="http://purl.org/dc/elements/1.1/"
   xmlns:cc="http://creativecommons.org/ns#"
   xmlns:rdf="http://www.w3.org/1999/02/22-rdf-syntax-ns#"
   xmlns:svg="http://www.w3.org/2000/svg"
   xmlns="http://www.w3.org/2000/svg"
   id="svg1764"
   version="1.1"
   viewBox="0 0 2.6931059 3.3453901"
   height="3.3453901mm"
   width="2.6931059mm">
  <defs
     id="defs1758" />
  <metadata
     id="metadata1761">
    <rdf:RDF>
      <cc:Work
         rdf:about="">
        <dc:format>image/svg+xml</dc:format>
        <dc:type
           rdf:resource="http://purl.org/dc/dcmitype/StillImage" />
        <dc:title></dc:title>
      </cc:Work>
    </rdf:RDF>
  </metadata>
  <g
     transform="translate(21.001315,-118.43445)"
     id="layer1">
    <path
       d="m -19.498552,121.0129 v 0.42298 l -0.03323,0.031 h -0.202565 l -0.03087,-0.031 v -0.42298 c -0.1385,-0.0536 -0.238407,-0.18733 -0.238407,-0.34643 0,-0.20461 0.166617,-0.37147 0.371934,-0.37147 0.205211,0 0.371651,0.16686 0.371651,0.37147 0,0.1591 -0.09991,0.29281 -0.238513,0.34643 z m -0.623852,-1.72649 c 0,-0.25753 0.209056,-0.46708 0.466478,-0.46708 0.25714,0 0.466302,0.20955 0.466302,0.46708 v 0.25435 h -0.93278 z m 1.521636,0.25435 h -0.203835 v -0.25435 c 0,-0.4699 -0.38227,-0.85196 -0.851323,-0.85196 -0.469512,0 -0.851218,0.38206 -0.851218,0.85196 v 0.25435 h -0.204364 c -0.159032,0 -0.289807,0.13053 -0.289807,0.28998 v 1.65665 c 0,0.16157 0.130775,0.29245 0.289807,0.29245 h 2.11074 c 0.161643,0 0.292559,-0.13088 0.292559,-0.29245 v -1.65665 c 0,-0.15945 -0.130916,-0.28998 -0.292559,-0.28998"
       style="fill:#264775;fill-opacity:1;fill-rule:nonzero;stroke:none;stroke-width:0.03527778"
       id="path488" />
  </g>
</svg>
